<svg fill="none" height="24" viewBox="0 0 24 24" width="24" xmlns="http://www.w3.org/2000/svg"
>
    <clipPath id="a">
        <path d="m0 0h24v24h-24z"/>
    </clipPath>
    <g clip-path="url(#a)">
        <path d="m15.7504 9.88439c-1.2126 1.99501-4.8744 2.45761-7.92003.60661-3.0456-1.85101-4.3212-5.31481-3.1086-7.30981.5154-.8484 1.4016-1.3332 2.3244-1.3734.8184-.036 1.59.3876 2.079 1.0446l.7494 1.0068c.70143.942 1.74183 1.5744 2.90163 1.7634l1.2264.1998c.8952.1458 1.6782.738 1.9896 1.59.2886.789.2286 1.698-.2418 2.4714z"
              fill="#952224"/>
        <path d="m10.4395 6.20006c.8058.4896 1.7532.4032 2.1156-.1932.075-.123.1116-.2604.1278-.4014-1.0902-.2016-2.0676-.795-2.74804-1.6704-.1182.0792-.2226.1752-.2976.2982-.3624.5964-.0036 1.4772.80224 1.9668z"
              fill="#EFD1AE"/>
        <path d="m10.4977 21.5093c-1.84019 1.437-5.42879.5742-7.62239-2.2344-2.193602-2.8086-2.161202-6.4998-.321-7.9368.7824-.6108 1.7826-.7512 2.6598-.4626.7776.2562 1.3494.9252 1.5744 1.7124l.345 1.2066c.3228 1.1298 1.0722 2.0892 2.0898 2.676l1.07639.621c.786.453 1.3086 1.284 1.2984 2.1912-.0096.84-.387 1.6686-1.101 2.226z"
              fill="#952224"/>
        <path d="m6.83349 16.184c.5802.7434 1.497.9978 2.0472.5682.1134-.0888.1968-.204.2616-.3306-.9486-.5742-1.6524-1.4754-1.9794-2.5344-.1386.0324-.2706.0846-.384.1734-.5502.4296-.5256 1.3806.0552 2.1234z"
              fill="#EFD1AE"/>
        <path d="m21.8285 9.10051c1.6422 1.65899 1.2054 5.32439-1.3278 7.83119-2.5326 2.5068-6.2022 2.9064-7.8444 1.2474-.6984-.7056-.9546-1.6824-.7704-2.5878.1632-.8028.7608-1.4484 1.5168-1.764l1.158-.4836c1.0842-.453 1.9494-1.3092 2.4132-2.3886l.4908-1.14179c.3582-.8334 1.1226-1.4502 2.0244-1.5462.8358-.0888 1.7028.189 2.3394.8328z"
              fill="#952224"/>
        <path d="m16.9671 13.3632c.6702-.6636.8154-1.6032.3246-2.0994-.1014-.1026-.2256-.1716-.3588-.2208-.459 1.0092-1.272 1.8138-2.2854 2.2626.048.1338.1158.2586.2172.3612.4908.4962 1.4322.3606 2.1024-.303z"
              fill="#EFD1AE"/>
    </g>
</svg>